# xmcd
#
# Track frame offsets:
#	150
#	12924
#	38078
#	49722
#	83097
#	105706
#	122148
#	142037
#	168961
#	182030
#	202730
#	233713
#	247356
#	261202
#	275048
#	288327
#	317734
#
# Disc length: 4336 seconds
#
# Revision: 0
# Processed by: cddbd v1.4PL0 Copyright (c) Steve Scherf et al.
# Submitted via: dBpowerAMP V4.0
#
DISCID=f310ee11
DTITLE=Cooper Terry - The Nite Life
DYEAR=1900
DGENRE=Blues
TTITLE0=Is L.A. Burnin'?
TTITLE1=Stormy Desert
TTITLE2=32 - 20
TTITLE3=And I Cry
TTITLE4=Tribute To Willie Dixon
TTITLE5=California Shuffle
TTITLE6=Raggety And Dirty
TTITLE7=Kinda Like Wolf
TTITLE8=My Daddy
TTITLE9=Nite Life
TTITLE10=Down Home Country Girl
TTITLE11=Ain't No Justice
TTITLE12=Take A Ride With Me
TTITLE13=I'm Evil
TTITLE14=African Soup Bone
TTITLE15=Crossroads
TTITLE16=Me And The Devil
EXTD=Cooper Terry: Vocals, Harmonica, Dobro, 12 Strings Guitar\nMarco Limido: Electric Guitar\nLillo Rogati: Acoustic And Eledctric Bass\nStefano Re: Drums 1, 5, 8, 14, 15, 16\nDavide Ravioli: Drums 2, 4, 6, 10, 13
EXTT0=
EXTT1=
EXTT2=
EXTT3=
EXTT4=
EXTT5=
EXTT6=
EXTT7=
EXTT8=
EXTT9=
EXTT10=
EXTT11=
EXTT12=
EXTT13=
EXTT14=
EXTT15=
EXTT16=
PLAYORDER=
